# Blender v2.80 (sub 39) OBJ File: 'Urn.blend'
# www.blender.org
mtllib Urn.mtl
o Urn
v -0.000000 0.000000 -0.060929
v -0.043084 0.000000 -0.043084
v -0.060929 0.000000 0.000000
v -0.043084 0.000000 0.043084
v 0.000000 0.000000 0.060929
v 0.043084 0.000000 0.043084
v 0.060929 0.000000 -0.000000
v 0.043084 0.000000 -0.043084
v 0.000000 0.013120 -0.042641
v -0.030152 0.013120 -0.030152
v -0.042641 0.013120 0.000000
v -0.030152 0.013120 0.030152
v 0.000000 0.013120 0.042641
v 0.030152 0.013120 0.030152
v 0.042641 0.013120 -0.000000
v 0.030152 0.013120 -0.030152
v -0.000000 0.355881 -0.054500
v -0.038537 0.355881 -0.038537
v -0.054500 0.355881 0.000000
v -0.038537 0.355881 0.038537
v 0.000000 0.355881 0.054500
v 0.038537 0.355881 0.038537
v 0.054500 0.355881 -0.000000
v 0.038537 0.355881 -0.038537
v -0.000000 0.380137 -0.052707
v -0.037269 0.380137 -0.037269
v -0.052707 0.380137 0.000000
v -0.037269 0.380137 0.037269
v 0.000000 0.380137 0.052707
v 0.037269 0.380137 0.037269
v 0.052707 0.380137 -0.000000
v 0.037269 0.380137 -0.037269
v -0.000000 0.376367 -0.059792
v -0.042279 0.376367 -0.042279
v -0.059792 0.376367 0.000000
v -0.042279 0.376367 0.042279
v 0.000000 0.376367 0.059792
v 0.042279 0.376367 0.042279
v 0.059792 0.376367 -0.000000
v 0.042279 0.376367 -0.042279
v -0.000000 0.406529 -0.054176
v -0.038308 0.406529 -0.038308
v -0.054176 0.406529 0.000000
v -0.038308 0.406529 0.038308
v 0.000000 0.406529 0.054176
v 0.038308 0.406529 0.038308
v 0.054176 0.406529 -0.000000
v 0.038308 0.406529 -0.038308
v -0.000000 0.424249 -0.038311
v -0.027090 0.424249 -0.027090
v -0.038311 0.424249 0.000000
v -0.027090 0.424249 0.027090
v 0.000000 0.424249 0.038311
v 0.027090 0.424249 0.027090
v 0.038311 0.424249 -0.000000
v 0.027090 0.424249 -0.027090
v -0.000000 0.430880 -0.010670
v -0.007545 0.430880 -0.007545
v -0.010670 0.430880 0.000000
v -0.007545 0.430880 0.007545
v 0.000000 0.430880 0.010670
v 0.007545 0.430880 0.007545
v 0.010670 0.430880 -0.000000
v 0.007545 0.430880 -0.007545
v -0.000000 0.457200 -0.010670
v -0.007545 0.457200 -0.007545
v -0.010670 0.457200 0.000000
v -0.007545 0.457200 0.007545
v 0.000000 0.457200 0.010670
v 0.007545 0.457200 0.007545
v 0.010670 0.457200 -0.000000
v 0.007545 0.457200 -0.007545
v -0.000000 0.457200 0.000000
v 0.000000 0.008490 -0.058532
v 0.041388 0.008490 -0.041388
v -0.058532 0.008490 0.000000
v -0.041388 0.008490 -0.041388
v 0.000000 0.008490 0.058532
v -0.041388 0.008490 0.041388
v 0.058532 0.008490 -0.000000
v 0.041388 0.008490 0.041388
v -0.048266 0.368009 0.000000
v -0.034129 0.368009 -0.034129
v 0.000000 0.368009 0.048266
v -0.034129 0.368009 0.034129
v 0.048266 0.368009 -0.000000
v 0.034129 0.368009 0.034129
v -0.000000 0.368009 -0.048266
v 0.034129 0.368009 -0.034129
v 0.000000 0.000000 0.000000
v -0.080900 0.329888 0.000000
v -0.104676 0.287813 0.000000
v -0.074017 0.287813 -0.074017
v -0.057205 0.329888 -0.057205
v 0.000000 0.329888 0.080900
v 0.000000 0.287813 0.104676
v -0.074017 0.287813 0.074017
v -0.057205 0.329888 0.057205
v 0.080900 0.329888 0.000000
v 0.104676 0.287813 0.000000
v 0.074017 0.287813 0.074017
v 0.057205 0.329888 0.057205
v 0.000000 0.329888 -0.080900
v 0.000000 0.287813 -0.104676
v 0.074017 0.287813 -0.074017
v 0.057205 0.329888 -0.057205
v 0.080213 0.229169 0.080213
v 0.052594 0.142999 0.052594
v 0.000000 0.142999 0.074379
v 0.000000 0.229169 0.113438
v 0.080213 0.229169 -0.080213
v 0.052594 0.142999 -0.052594
v 0.074379 0.142999 -0.000000
v 0.113438 0.229169 0.000000
v -0.113438 0.229169 -0.000000
v -0.074379 0.142999 -0.000000
v -0.052594 0.142999 -0.052594
v -0.080213 0.229169 -0.080213
v -0.052594 0.142999 0.052594
v -0.080213 0.229169 0.080213
v 0.000000 0.229169 -0.113438
v 0.000000 0.142999 -0.074379
v 0.038828 0.089359 0.038828
v 0.038828 0.089359 -0.038828
v -0.054911 0.089359 -0.000000
v 0.000000 0.089359 -0.054911
v 0.000000 0.089359 0.054911
v 0.054911 0.089359 -0.000000
v -0.038828 0.089359 -0.038828
v -0.038828 0.089359 0.038828
v -0.043084 0.000000 -0.043084
v -0.000000 0.000000 -0.060929
v -0.060929 0.000000 0.000000
v -0.043084 0.000000 0.043084
v 0.000000 0.000000 0.060929
v 0.043084 0.000000 0.043084
v 0.060929 0.000000 -0.000000
v 0.043084 0.000000 -0.043084
v -0.030152 0.013120 -0.030152
v 0.000000 0.013120 -0.042641
v -0.042641 0.013120 0.000000
v -0.030152 0.013120 0.030152
v 0.000000 0.013120 0.042641
v 0.030152 0.013120 0.030152
v 0.042641 0.013120 -0.000000
v 0.030152 0.013120 -0.030152
v 0.000000 0.008490 0.058532
v -0.041388 0.008490 0.041388
v -0.037269 0.380137 -0.037269
v -0.000000 0.380137 -0.052707
v -0.052707 0.380137 0.000000
v -0.037269 0.380137 0.037269
v 0.000000 0.380137 0.052707
v 0.037269 0.380137 0.037269
v 0.052707 0.380137 -0.000000
v 0.037269 0.380137 -0.037269
v -0.042279 0.376367 -0.042279
v -0.000000 0.376367 -0.059792
v -0.059792 0.376367 0.000000
v -0.042279 0.376367 0.042279
v 0.000000 0.376367 0.059792
v 0.042279 0.376367 0.042279
v 0.059792 0.376367 -0.000000
v 0.042279 0.376367 -0.042279
v -0.007545 0.430880 -0.007545
v -0.000000 0.430880 -0.010670
v -0.010670 0.430880 0.000000
v -0.007545 0.430880 0.007545
v 0.000000 0.430880 0.010670
v 0.007545 0.430880 0.007545
v 0.010670 0.430880 -0.000000
v 0.007545 0.430880 -0.007545
v -0.007545 0.457200 -0.007545
v -0.000000 0.457200 -0.010670
v -0.010670 0.457200 0.000000
v -0.007545 0.457200 0.007545
v 0.000000 0.457200 0.010670
v 0.007545 0.457200 0.007545
v 0.010670 0.457200 -0.000000
v 0.007545 0.457200 -0.007545
v 0.041388 0.008490 -0.041388
v 0.058532 0.008490 -0.000000
v -0.058532 0.008490 0.000000
v -0.041388 0.008490 -0.041388
v 0.000000 0.008490 -0.058532
v 0.041388 0.008490 0.041388
vt 0.721590 0.898892
vt 0.728543 0.875226
vt 0.765860 0.875226
vt 0.772813 0.898892
vt 0.809034 0.847828
vt 0.792247 0.838025
vt 0.792247 0.785415
vt 0.809034 0.775612
vt 0.772813 0.724547
vt 0.765860 0.748213
vt 0.728543 0.748213
vt 0.721590 0.724547
vt 0.685369 0.847828
vt 0.702156 0.838025
vt 0.702156 0.785415
vt 0.685369 0.775612
vt 0.218561 0.823754
vt 0.230423 0.822368
vt 0.231010 0.876484
vt 0.219171 0.880087
vt 0.914239 0.781936
vt 0.926501 0.783533
vt 0.926501 0.861499
vt 0.914239 0.863096
vt 0.249758 0.818625
vt 0.238934 0.817159
vt 0.238934 0.745576
vt 0.249758 0.744110
vt 0.919527 0.724547
vt 0.931581 0.728402
vt 0.931581 0.916630
vt 0.919527 0.920485
vt 0.496065 0.691331
vt 0.507903 0.694934
vt 0.507317 0.749050
vt 0.495454 0.747664
vt 0.507903 0.825561
vt 0.496065 0.827308
vt 0.219171 0.744110
vt 0.231010 0.745858
vt 0.713041 0.043651
vt 0.720242 0.021826
vt 0.753886 0.035807
vt 0.743851 0.056454
vt 0.989645 0.667774
vt 0.999681 0.688421
vt 0.966037 0.702401
vt 0.958836 0.680576
vt 0.129008 0.718205
vt 0.129517 0.743472
vt 0.094949 0.734231
vt 0.097352 0.709743
vt 0.053391 0.693452
vt 0.046943 0.716442
vt 0.013620 0.700525
vt 0.022876 0.678877
vt 0.344549 0.668386
vt 0.341026 0.690692
vt 0.294975 0.667239
vt 0.302378 0.646908
vt 0.918855 0.723908
vt 0.915630 0.700271
vt 0.669835 0.023956
vt 0.673060 0.000319
vt 0.292964 0.869183
vt 0.289673 0.880385
vt 0.250397 0.825012
vt 0.258342 0.820372
vt 0.258342 0.751344
vt 0.250397 0.746704
vt 0.289673 0.691331
vt 0.292964 0.702533
vt 0.341926 0.702533
vt 0.345217 0.691331
vt 0.384493 0.746704
vt 0.376548 0.751344
vt 0.384493 0.825012
vt 0.376548 0.820372
vt 0.341926 0.869183
vt 0.345217 0.880385
vt 0.460198 0.829884
vt 0.416242 0.826072
vt 0.416242 0.752533
vt 0.460198 0.748722
vt 0.000934 0.744110
vt 0.044011 0.748533
vt 0.043454 0.821184
vt 0.000319 0.824293
vt 0.158197 0.878428
vt 0.101968 0.875915
vt 0.101968 0.827439
vt 0.158197 0.824927
vt 0.809673 0.781260
vt 0.852807 0.784369
vt 0.853364 0.857020
vt 0.810287 0.861443
vt 0.454910 0.887275
vt 0.411451 0.878073
vt 0.411450 0.700533
vt 0.454910 0.691331
vt 0.044011 0.872570
vt 0.000934 0.881006
vt 0.810287 0.724547
vt 0.853364 0.732983
vt 0.388520 0.763301
vt 0.385132 0.726530
vt 0.069236 0.810937
vt 0.069630 0.847275
vt 0.878983 0.758278
vt 0.878589 0.794616
vt 0.388520 0.815305
vt 0.069630 0.759562
vt 0.070269 0.868817
vt 0.070269 0.834537
vt 0.878983 0.845991
vt 0.385132 0.852076
vt 0.070269 0.800804
vt 0.111045 0.788824
vt 0.120266 0.795365
vt 0.103376 0.824288
vt 0.133307 0.795365
vt 0.150197 0.824288
vt 0.183305 0.800804
vt 0.142529 0.788824
vt 0.142529 0.779574
vt 0.183305 0.767594
vt 0.150197 0.744110
vt 0.133307 0.773033
vt 0.120266 0.773033
vt 0.103376 0.744110
vt 0.070269 0.767594
vt 0.111045 0.779574
vt 0.498809 0.874895
vt 0.498809 0.827947
vt 0.507903 0.827947
vt 0.507903 0.874895
vt 0.561541 0.867260
vt 0.508992 0.867260
vt 0.508992 0.857164
vt 0.561541 0.857164
vt 0.238934 0.866354
vt 0.238934 0.819264
vt 0.248001 0.819264
vt 0.248001 0.866354
vt 0.165975 0.877738
vt 0.165975 0.825189
vt 0.176071 0.825189
vt 0.176071 0.877738
vt 0.183211 0.824927
vt 0.183211 0.877475
vt 0.561278 0.874400
vt 0.508730 0.874400
vt 0.508730 0.850024
vt 0.561278 0.850024
vt 0.158835 0.877475
vt 0.158835 0.824927
vt 0.571207 0.850024
vt 0.583975 0.850024
vt 0.593002 0.856428
vt 0.577591 0.860956
vt 0.593002 0.865484
vt 0.583975 0.871887
vt 0.571207 0.871887
vt 0.562180 0.865484
vt 0.562180 0.856428
vt 0.508091 0.019294
vt 0.478338 0.159060
vt 0.430361 0.134625
vt 0.470835 0.000319
vt 0.802642 0.011630
vt 0.841046 0.152640
vt 0.791891 0.175046
vt 0.764470 0.029030
vt 0.182953 0.013197
vt 0.149860 0.158662
vt 0.115143 0.142079
vt 0.155994 0.000319
vt 0.221791 0.027589
vt 0.199873 0.177195
vt 0.556847 0.712597
vt 0.595251 0.571588
vt 0.630302 0.586153
vt 0.584066 0.723908
vt 0.829861 0.000319
vt 0.876097 0.138075
vt 0.249758 0.035065
vt 0.235886 0.186822
vt 0.518675 0.695198
vt 0.546097 0.549181
vt 0.385353 0.669707
vt 0.372968 0.689033
vt 0.353263 0.646392
vt 0.305645 0.622141
vt 0.271159 0.637182
vt 0.270395 0.611159
vt 0.907529 0.678388
vt 0.885336 0.715321
vt 0.873323 0.695382
vt 0.627528 0.028846
vt 0.639541 0.008906
vt 0.661734 0.045840
vt 0.956316 0.656149
vt 0.104402 0.688210
vt 0.054763 0.669816
vt 0.710521 0.068078
vt 0.710838 0.123610
vt 0.638418 0.090598
vt 0.879622 0.744390
vt 0.913600 0.724547
vt 0.913600 0.846155
vt 0.879622 0.826312
vt 0.307597 0.563639
vt 0.378281 0.599638
vt 0.183944 0.763953
vt 0.217922 0.744110
vt 0.217922 0.865718
vt 0.183944 0.845876
vt 0.884212 0.633629
vt 0.956632 0.600618
vt 0.460837 0.711174
vt 0.494815 0.691331
vt 0.494815 0.812939
vt 0.460837 0.793096
vt 0.051501 0.618366
vt 0.125186 0.645671
vt 0.460837 0.833420
vt 0.494815 0.813578
vt 0.494815 0.935185
vt 0.460837 0.915343
vt 0.508730 0.812821
vt 0.596730 0.786966
vt 0.633181 0.849385
vt 0.560279 0.849385
vt 0.560279 0.724547
vt 0.508730 0.761111
vt 0.684731 0.761111
vt 0.633181 0.724547
vt 0.684731 0.812821
vt 0.703037 0.208878
vt 0.681476 0.321781
vt 0.579929 0.275493
vt 0.609333 0.166165
vt 0.055238 0.536234
vt 0.072039 0.423236
vt 0.175359 0.461523
vt 0.150578 0.571563
vt 0.855128 0.558063
vt 0.825723 0.448735
vt 0.927270 0.402446
vt 0.948831 0.515350
vt 0.318101 0.476821
vt 0.342184 0.365946
vt 0.441296 0.416424
vt 0.409558 0.523400
vt 0.508730 0.240121
vt 0.543634 0.133525
vt 0.754525 0.484107
vt 0.789429 0.590702
vt 0.250397 0.455727
vt 0.268812 0.343087
vt 0.471194 0.568179
vt 0.425917 0.634246
vt 0.255271 0.547337
vt 0.833436 0.658855
vt 0.587641 0.065373
vt 0.121423 0.260351
vt 0.189168 0.285455
vt 0.627023 0.475017
vt 0.560441 0.444667
vt 0.753886 0.351871
vt 0.674501 0.494747
vt 0.872818 0.249210
vt 0.920296 0.229481
vt 0.999681 0.372357
vt 0.237950 0.298495
vt 0.249758 0.481411
vt 0.000319 0.388979
vt 0.074397 0.237889
vt 0.397687 0.224617
vt 0.462674 0.257714
vt 0.806235 0.279561
vt 0.508091 0.464952
vn 0.2798 0.9601 0.0000
vn 0.1978 0.9601 0.1978
vn 0.0000 0.9601 0.2798
vn -0.1978 0.9601 0.1978
vn -0.2798 0.9601 0.0000
vn -0.1978 0.9601 -0.1978
vn 0.1978 0.9601 -0.1978
vn 0.0000 0.9601 -0.2798
vn 0.0000 0.2718 0.9623
vn -0.6805 0.2718 0.6805
vn 0.6805 0.2718 -0.6805
vn 0.9623 0.2718 0.0000
vn -0.9623 0.2718 0.0000
vn 0.0000 0.2718 -0.9623
vn 0.6805 0.2718 0.6805
vn -0.6805 0.2718 -0.6805
vn 0.0000 0.0689 -0.9976
vn 0.0000 -0.3438 -0.9390
vn 0.6640 -0.3438 -0.6640
vn 0.7054 0.0689 -0.7054
vn 0.9976 0.0689 0.0000
vn 0.9390 -0.3438 0.0000
vn 0.6640 -0.3438 0.6640
vn 0.7054 0.0689 0.7054
vn 0.0000 0.0689 0.9976
vn 0.0000 -0.3438 0.9390
vn -0.6640 -0.3438 0.6640
vn -0.7054 0.0689 0.7054
vn -0.9976 0.0689 0.0000
vn -0.9390 -0.3438 0.0000
vn -0.6640 -0.3438 -0.6640
vn -0.7054 0.0689 -0.7054
vn -0.3321 -0.8828 -0.3321
vn 0.0000 -0.8828 -0.4697
vn 0.3321 -0.8828 -0.3321
vn 0.4697 -0.8828 0.0000
vn 0.3321 -0.8828 0.3321
vn 0.0000 -0.8828 0.4697
vn -0.3321 -0.8828 0.3321
vn -0.4697 -0.8828 0.0000
vn 0.6952 0.1830 -0.6952
vn 0.6426 0.4172 -0.6426
vn 0.9088 0.4172 0.0000
vn 0.9831 0.1830 0.0000
vn 0.6952 0.1830 0.6952
vn 0.6426 0.4172 0.6426
vn 0.0000 0.4172 0.9088
vn 0.0000 0.1830 0.9831
vn -0.6952 0.1830 0.6952
vn -0.6426 0.4172 0.6426
vn -0.9088 0.4172 0.0000
vn -0.9831 0.1830 0.0000
vn -0.6952 0.1830 -0.6952
vn -0.6426 0.4172 -0.6426
vn 0.0000 0.4172 -0.9088
vn 0.0000 0.1830 -0.9831
vn 0.5629 0.8265 0.0000
vn 0.3981 0.8265 0.3981
vn 0.0000 0.8265 0.5629
vn -0.3981 0.8265 0.3981
vn -0.5629 0.8265 0.0000
vn -0.3981 0.8265 -0.3981
vn 0.3981 0.8265 -0.3981
vn 0.0000 0.8265 -0.5629
vn -0.1650 0.9724 -0.1650
vn 0.0000 0.9724 -0.2333
vn 0.1650 0.9724 -0.1650
vn 0.2333 0.9724 0.0000
vn 0.1650 0.9724 0.1650
vn 0.0000 0.9724 0.2333
vn -0.1650 0.9724 0.1650
vn -0.2333 0.9724 0.0000
vn 0.7071 0.0000 -0.7071
vn 1.0000 0.0000 0.0000
vn 0.7071 0.0000 0.7071
vn 0.0000 0.0000 1.0000
vn -0.7071 0.0000 0.7071
vn -1.0000 0.0000 0.0000
vn -0.7071 0.0000 -0.7071
vn 0.0000 0.0000 -1.0000
vn 0.0000 1.0000 0.0000
vn 0.6981 -0.1589 -0.6981
vn 0.6834 -0.2569 -0.6834
vn 0.9664 -0.2569 0.0000
vn 0.9873 -0.1589 0.0000
vn 0.6981 -0.1589 0.6981
vn 0.6834 -0.2569 0.6834
vn 0.0000 -0.2569 0.9664
vn 0.0000 -0.1589 0.9873
vn -0.9873 -0.1589 0.0000
vn -0.9664 -0.2569 0.0000
vn -0.6834 -0.2569 -0.6834
vn -0.6981 -0.1589 -0.6981
vn -0.6981 -0.1589 0.6981
vn -0.6834 -0.2569 0.6834
vn 0.0000 -0.1589 -0.9873
vn 0.0000 -0.2569 -0.9664
vn 0.0000 0.6117 -0.7911
vn 0.5594 0.6117 -0.5594
vn 0.7911 0.6117 0.0000
vn 0.5594 0.6117 0.5594
vn 0.0000 0.6117 0.7911
vn -0.5594 0.6117 0.5594
vn -0.7911 0.6117 0.0000
vn -0.5594 0.6117 -0.5594
vn 0.0000 0.5922 -0.8058
vn -0.5698 0.5922 -0.5698
vn 0.5698 0.5922 -0.5698
vn 0.8058 0.5922 0.0000
vn 0.5698 0.5922 0.5698
vn 0.0000 0.5922 0.8058
vn -0.5698 0.5922 0.5698
vn -0.8058 0.5922 0.0000
vn 0.0000 -1.0000 0.0000
vn 0.0000 0.3124 -0.9499
vn 0.0000 -0.1296 -0.9915
vn -0.7011 -0.1296 -0.7011
vn -0.6717 0.3124 -0.6717
vn -0.9499 0.3124 0.0000
vn -0.9915 -0.1296 0.0000
vn -0.7011 -0.1296 0.7011
vn -0.6717 0.3124 0.6717
vn 0.0000 0.3124 0.9499
vn 0.0000 -0.1296 0.9915
vn 0.7011 -0.1296 0.7011
vn 0.6717 0.3124 0.6717
vn 0.9499 0.3124 0.0000
vn 0.9915 -0.1296 0.0000
vn 0.7011 -0.1296 -0.7011
vn 0.6717 0.3124 -0.6717
vn -0.9247 -0.3806 0.0000
vn -0.6539 -0.3806 0.6539
vn 0.0000 -0.3806 -0.9247
vn -0.6539 -0.3806 -0.6539
vn 0.6539 -0.3806 -0.6539
vn 0.6539 -0.3806 0.6539
vn 0.9247 -0.3806 0.0000
vn 0.0000 -0.3806 0.9247
usemtl Urn
s 1
f 80/1/1 145/2/1 144/3/2 186/4/2
f 78/5/3 143/6/3 142/7/4 148/8/4
f 76/9/5 141/10/5 139/11/6 184/12/6
f 75/13/7 146/14/7 145/2/1 80/1/1
f 186/4/2 144/3/2 143/6/3 78/5/3
f 148/8/4 142/7/4 141/10/5 76/9/5
f 184/12/6 139/11/6 140/15/8 185/16/8
f 185/16/8 140/15/8 146/14/7 75/13/7
f 135/17/9 147/18/9 79/19/10 134/20/10
f 138/21/11 181/22/11 182/23/12 137/24/12
f 134/25/10 79/26/10 183/27/13 133/28/13
f 132/29/14 74/30/14 181/22/11 138/21/11
f 137/24/12 182/23/12 81/31/15 136/32/15
f 133/33/13 183/34/13 77/35/16 131/36/16
f 131/36/16 77/35/16 74/37/14 132/38/14
f 136/39/15 81/40/15 147/18/9 135/17/9
f 88/41/17 150/42/18 156/43/19 89/44/20
f 86/45/21 155/46/22 154/47/23 87/48/24
f 84/49/25 153/50/26 152/51/27 85/52/28
f 82/53/29 151/54/30 149/55/31 83/56/32
f 89/57/20 156/58/19 155/59/22 86/60/21
f 87/48/24 154/47/23 153/61/26 84/62/25
f 85/52/28 152/51/27 151/54/30 82/53/29
f 83/63/32 149/64/31 150/42/18 88/41/17
f 30/65/33 162/66/33 161/67/34 29/68/34
f 28/69/35 160/70/35 159/71/36 27/72/36
f 26/73/37 157/74/37 158/75/38 25/76/38
f 25/76/38 158/75/38 164/77/39 32/78/39
f 31/79/40 163/80/40 162/66/33 30/65/33
f 29/68/34 161/67/34 160/70/35 28/69/35
f 27/72/36 159/71/36 157/74/37 26/73/37
f 32/78/39 164/77/39 163/80/40 31/79/40
f 40/81/41 48/82/42 47/83/43 39/84/44
f 38/85/45 46/86/46 45/87/47 37/88/48
f 36/89/49 44/90/50 43/91/51 35/92/52
f 34/93/53 42/94/54 41/95/55 33/96/56
f 33/97/56 41/98/55 48/82/42 40/81/41
f 39/84/44 47/83/43 46/99/46 38/100/45
f 37/88/48 45/87/47 44/101/50 36/102/49
f 35/103/52 43/104/51 42/94/54 34/93/53
f 47/83/43 55/105/57 54/106/58 46/99/46
f 45/87/47 53/107/59 52/108/60 44/101/50
f 43/104/51 51/109/61 50/110/62 42/94/54
f 48/82/42 56/111/63 55/105/57 47/83/43
f 46/86/46 54/112/58 53/107/59 45/87/47
f 44/90/50 52/113/60 51/114/61 43/91/51
f 42/94/54 50/110/62 49/115/64 41/95/55
f 41/98/55 49/116/64 56/111/63 48/82/42
f 50/117/62 165/118/65 166/119/66 49/120/64
f 49/120/64 166/119/66 172/121/67 56/122/63
f 55/123/57 171/124/68 170/125/69 54/126/58
f 53/127/59 169/128/70 168/129/71 52/130/60
f 51/131/61 167/132/72 165/118/65 50/117/62
f 56/122/63 172/121/67 171/124/68 55/123/57
f 54/126/58 170/125/69 169/128/70 53/127/59
f 52/130/60 168/129/71 167/132/72 51/131/61
f 64/133/73 180/134/73 179/135/74 63/136/74
f 62/137/75 178/138/75 177/139/76 61/140/76
f 60/141/77 176/142/77 175/143/78 59/144/78
f 58/145/79 173/146/79 174/147/80 57/148/80
f 57/148/80 174/147/80 180/149/73 64/150/73
f 63/151/74 179/152/74 178/138/75 62/137/75
f 61/140/76 177/139/76 176/153/77 60/154/77
f 59/155/78 175/156/78 173/146/79 58/145/79
f 65/157/81 66/158/81 67/159/81 73/160/81
f 67/159/81 68/161/81 69/162/81 73/160/81
f 69/162/81 70/163/81 71/164/81 73/160/81
f 71/164/81 72/165/81 65/157/81 73/160/81
f 16/166/82 124/167/83 128/168/84 15/169/85
f 14/170/86 123/171/87 127/172/88 13/173/89
f 11/174/90 125/175/91 129/176/92 10/177/93
f 12/178/94 130/179/95 125/175/91 11/174/90
f 9/180/96 126/181/97 124/182/83 16/183/82
f 15/184/85 128/185/84 123/171/87 14/170/86
f 13/186/89 127/187/88 130/179/95 12/178/94
f 10/188/93 129/189/92 126/181/97 9/180/96
f 17/190/98 88/191/17 89/57/20 24/192/99
f 23/193/100 86/60/21 87/194/24 22/195/101
f 21/196/102 84/62/25 85/197/28 20/198/103
f 19/199/104 82/200/29 83/63/32 18/201/105
f 24/192/99 89/57/20 86/60/21 23/193/100
f 22/202/101 87/48/24 84/62/25 21/196/102
f 20/203/103 85/52/28 82/53/29 19/204/104
f 18/201/105 83/63/32 88/41/17 17/205/98
f 17/205/98 103/206/106 94/207/107 18/201/105
f 24/208/99 106/209/108 103/210/106 17/211/98
f 23/193/100 99/212/109 106/213/108 24/192/99
f 22/214/101 102/215/110 99/216/109 23/217/100
f 21/196/102 95/218/111 102/219/110 22/202/101
f 20/220/103 98/221/112 95/222/111 21/223/102
f 19/204/104 91/224/113 98/225/112 20/203/103
f 18/226/105 94/227/107 91/228/113 19/229/104
f 7/230/114 90/231/114 1/232/114 8/233/114
f 5/234/114 90/231/114 7/230/114 6/235/114
f 3/236/114 90/231/114 5/234/114 4/237/114
f 1/232/114 90/231/114 3/236/114 2/238/114
f 104/239/115 121/240/116 118/241/117 93/242/118
f 92/243/119 115/244/120 120/245/121 97/246/122
f 96/247/123 110/248/124 107/249/125 101/250/126
f 100/251/127 114/252/128 111/253/129 105/254/130
f 118/241/117 115/255/120 92/256/119 93/242/118
f 120/257/121 110/248/124 96/247/123 97/258/122
f 101/259/126 107/260/125 114/252/128 100/251/127
f 99/212/109 100/251/127 105/254/130 106/213/108
f 95/218/111 96/247/123 101/250/126 102/219/110
f 91/224/113 92/243/119 97/246/122 98/225/112
f 103/206/106 104/239/115 93/242/118 94/207/107
f 106/213/108 105/254/130 104/261/115 103/262/106
f 102/263/110 101/259/126 100/251/127 99/212/109
f 98/264/112 97/258/122 96/247/123 95/218/111
f 94/207/107 93/242/118 92/256/119 91/265/113
f 115/244/120 116/266/131 119/267/132 120/245/121
f 121/240/116 122/268/133 117/269/134 118/241/117
f 111/270/129 112/271/135 122/268/133 121/240/116
f 107/249/125 108/272/136 113/273/137 114/274/128
f 120/245/121 119/267/132 109/275/138 110/276/124
f 118/277/117 117/278/134 116/266/131 115/244/120
f 114/252/128 113/279/137 112/280/135 111/253/129
f 110/248/124 109/281/138 108/272/136 107/249/125
f 116/266/131 125/175/91 130/179/95 119/267/132
f 122/268/133 126/181/97 129/189/92 117/269/134
f 112/271/135 124/182/83 126/181/97 122/268/133
f 108/272/136 123/171/87 128/185/84 113/273/137
f 119/267/132 130/179/95 127/187/88 109/275/138
f 117/278/134 129/176/92 125/175/91 116/266/131
f 113/279/137 128/168/84 124/167/83 112/280/135
f 109/281/138 127/172/88 123/171/87 108/272/136
f 105/254/130 111/253/129 121/282/116 104/261/115
